General
Complete name                    : C:\UPs\Hairspray.2007.BluRay.1080p-Lorinsion\Hairspray.mkv
Format                           : Matroska
File size                        : 3.56 GiB
Duration                         : 1h 56mn
Overall bit rate                 : 4 392 Kbps
Movie name                       : Hairspray
Encoded date                     : UTC 2010-12-10 01:21:32
Writing application              : mkvmerge v4.3.0 ('Escape from the Island') built on Sep  5 2010 10:30:51
Writing library                  : libebml v1.0.0 + libmatroska v1.0.0

Video
ID                               : 1
Format                           : AVC
Format/Info                      : Advanced Video Codec
Format profile                   : High@L4.0
Format settings, CABAC           : Yes
Format settings, ReFrames        : 3 frames
Codec ID                         : V_MPEG4/ISO/AVC
Duration                         : 1h 56mn
Bit rate mode                    : Variable
Bit rate                         : 3 665 Kbps
Maximum bit rate                 : 25.0 Mbps
Width                            : 1 920 pixels
Height                           : 816 pixels
Display aspect ratio             : 2.35:1
Frame rate                       : 23.976 fps
Color space                      : YUV
Chroma subsampling               : 4:2:0
Bit depth                        : 8 bits
Scan type                        : Progressive
Bits/(Pixel*Frame)               : 0.098
Stream size                      : 2.97 GiB (83%)
Writing library                  : x264 core 105 r1732 2b04482

Audio
ID                               : 2
Format                           : AC-3
Format/Info                      : Audio Coding 3
Mode extension                   : CM (complete main)
Codec ID                         : A_AC3
Duration                         : 1h 56mn
Bit rate mode                    : Constant
Bit rate                         : 640 Kbps
Channel(s)                       : 6 channels
Channel positions                : Front: L C R, Side: L R, LFE
Sampling rate                    : 48.0 KHz
Bit depth                        : 16 bits
Compression mode                 : Lossy
Stream size                      : 532 MiB (15%)
Language                         : English


Screens:
 
http://img217.imageshack.us/i/vlcsnap2011011318h20m40.png/
 
http://img33.imageshack.us/i/vlcsnap2011011318h16m42.png/
 
http://img714.imageshack.us/i/vlcsnap2011011318h17m57.png/
 
http://img689.imageshack.us/i/vlcsnap2011011318h20m13.png/
 
http://img801.imageshack.us/i/vlcsnap2011011318h20m16.png/